<?xml version="1.0" encoding="UTF-8"?>
<svg version="1.1" xmlns="http://www.w3.org/2000/svg" width="279" height="461">
<path d="M0 0 C14.52 0 29.04 0 44 0 C45.32 4.29 46.64 8.58 48 13 C52.1496775 20.68910831 58.609656 24.36292258 66.6875 27.375 C74.90505759 28.92548256 82.19827614 27.7394938 89.46484375 23.59375 C98.14659499 17.46885395 100.48296159 10.06815363 103 0 C117.19 0 131.38 0 146 0 C146 2.31 146 4.62 146 7 C146.67417969 7.22429687 147.34835938 7.44859375 148.04296875 7.6796875 C151.84188632 9.37590169 154.97159576 11.66835157 158.3125 14.125 C158.95767578 14.59292969 159.60285156 15.06085938 160.26757812 15.54296875 C161.84848894 16.6905929 163.42472301 17.84465477 165 19 C164.42452109 25.61800742 162.66796826 29.33007936 160 36 C152.08 35.67 144.16 35.34 136 35 C135.34 36.65 134.68 38.3 134 40 C133.071875 40.86625 132.14375 41.7325 131.1875 42.625 C129.77995428 44.10616469 129.77995428 44.10616469 129 46 C129.32817234 49.88758006 130.66703764 53.35312764 132 57 C132.73162386 59.22836141 133.46084549 61.45751316 134.1875 63.6875 C134.7886289 65.45936684 135.39166973 67.23059266 136 69 C133.78592205 70.73171455 131.55737278 72.43405686 129.3125 74.125 C128.68666016 74.61871094 128.06082031 75.11242187 127.41601562 75.62109375 C122.73754459 79.09932876 122.73754459 79.09932876 119.4765625 78.66015625 C115.48264727 75.98284714 111.86497335 72.90016071 108.25976562 69.72460938 C104.63611908 66.66543192 104.63611908 66.66543192 100.05859375 65.98046875 C99.04925781 66.31691406 98.03992188 66.65335937 97 67 C96.33621338 67.1252002 95.67242676 67.25040039 94.98852539 67.37939453 C92.6081241 67.95957782 91.00017016 68.57214834 89 70 C87.02296456 73.38291072 86.02862717 76.92332088 85 80.6875 C84.70222656 81.67556641 84.40445313 82.66363281 84.09765625 83.68164062 C83.3695357 86.11262374 82.68084133 88.55535412 82 91 C75.73 91 69.46 91 63 91 C59.66089161 83.20874709 59.66089161 83.20874709 58.9296875 80.140625 C57.25969225 72.93605289 57.25969225 72.93605289 52.8515625 67.328125 C48.66272164 65.85298503 45.25698002 65.631685 41 67 C38.73778626 68.61266722 36.62454302 70.2254397 34.5 72 C27.21211034 78.08733243 27.21211034 78.08733243 23 78 C20.17578125 76.41796875 20.17578125 76.41796875 17.3125 74.1875 C16.35988281 73.45917969 15.40726563 72.73085938 14.42578125 71.98046875 C12 70 12 70 10 68 C10.52237811 62.57307188 13.05875834 57.50000299 15.0390625 52.47265625 C16.07249607 48.73801218 16.08107293 46.69236022 15 43 C13.88129108 41.15786094 13.88129108 41.15786094 12.4375 39.75 C10 37 10 37 10 35 C2.08 35.33 -5.84 35.66 -14 36 C-19.79678562 21.6529556 -19.79678562 21.6529556 -19 18 C-16.5859375 15.90234375 -16.5859375 15.90234375 -13.375 13.9375 C-12.33085938 13.28652344 -11.28671875 12.63554687 -10.2109375 11.96484375 C-8.05351512 10.64466923 -5.87004999 9.36622242 -3.6640625 8.12890625 C-0.30145924 5.92774659 -0.30145924 5.92774659 0 0 Z " fill="#000000" transform="translate(67,309)"/>
<path d="M0 0 C1.18613892 0.00785522 1.18613892 0.00785522 2.39624023 0.01586914 C3.67724609 0.02070312 3.67724609 0.02070312 4.98413086 0.02563477 C6.33087891 0.03820313 6.33087891 0.03820313 7.70483398 0.05102539 C8.6065332 0.05553711 9.50823242 0.06004883 10.43725586 0.06469727 C12.67234712 0.07652315 14.90730835 0.09300319 17.14233398 0.11352539 C17.26648682 0.72873047 17.39063965 1.34393555 17.51855469 1.9777832 C19.53230685 13.8406413 19.53230685 13.8406413 25.84936523 23.46899414 C29.58525792 24.85432516 32.39586363 25.74238505 36.23608398 24.35961914 C38.35437336 22.97491768 40.15459585 21.451646 42.01733398 19.73852539 C48.57057064 13.93909332 48.57057064 13.93909332 52.14233398 12.11352539 C56.11810699 13.26842439 59.21907502 15.33942156 62.51733398 17.80102539 C63.41194336 18.44426758 64.30655273 19.08750977 65.22827148 19.75024414 C67.14233398 22.11352539 67.14233398 22.11352539 67.09936523 25.43383789 C65.79793082 30.4377204 63.93138428 35.11542992 62.00561523 39.90649414 C60.87644989 42.9564919 60.87644989 42.9564919 61.83374023 45.31274414 C62.26557617 45.90700195 62.69741211 46.50125977 63.14233398 47.11352539 C63.56772461 47.72454102 63.99311523 48.33555664 64.43139648 48.96508789 C65.32641032 50.15320567 66.22225207 51.3407002 67.11889648 52.52758789 C68.14233398 54.11352539 68.14233398 54.11352539 68.14233398 56.11352539 C79.52733398 55.61852539 79.52733398 55.61852539 91.14233398 55.11352539 C95.74896906 68.9334306 95.74896906 68.9334306 94.14233398 73.11352539 C92.28686523 74.99243164 92.28686523 74.99243164 89.95483398 76.67602539 C89.14530273 77.26641602 88.33577148 77.85680664 87.50170898 78.46508789 C86.72311523 79.00907227 85.94452148 79.55305664 85.14233398 80.11352539 C84.22194336 80.77481445 84.22194336 80.77481445 83.28295898 81.44946289 C79.46635881 84.11352539 79.46635881 84.11352539 77.14233398 84.11352539 C77.14233398 86.42352539 77.14233398 88.73352539 77.14233398 91.11352539 C63.61233398 91.11352539 50.08233398 91.11352539 36.14233398 91.11352539 C34.82233398 86.82352539 33.50233398 82.53352539 32.14233398 78.11352539 C27.91424885 71.34858917 23.13069115 66.12430062 15.32983398 63.73852539 C8.13786587 62.29178519 1.27444915 63.38634551 -5.11157227 66.94555664 C-14.38731076 73.1501334 -16.33706998 80.19094257 -18.85766602 91.11352539 C-33.04766602 91.11352539 -47.23766602 91.11352539 -61.85766602 91.11352539 C-62.18766602 89.13352539 -62.51766602 87.15352539 -62.85766602 85.11352539 C-64.48636225 83.24407815 -64.48636225 83.24407815 -66.67407227 81.90258789 C-67.4378418 81.38051758 -68.20161133 80.85844727 -68.98852539 80.32055664 C-69.7909668 79.79848633 -70.5934082 79.27641602 -71.42016602 78.73852539 C-72.22647461 78.19325195 -73.0327832 77.64797852 -73.86352539 77.08618164 C-75.85127417 75.74533335 -77.84873478 74.42233123 -79.85766602 73.11352539 C-79.36797307 66.50267063 -77.5232386 61.16375525 -74.85766602 55.11352539 C-74.2226416 55.16065674 -73.58761719 55.20778809 -72.93334961 55.25634766 C-70.03394969 55.44433538 -67.13582709 55.56070436 -64.23266602 55.67602539 C-62.73413086 55.78914063 -62.73413086 55.78914063 -61.20532227 55.90454102 C-55.52438959 56.09320882 -55.52438959 56.09320882 -50.77270508 53.31616211 C-48.06933294 49.633228 -46.86945887 47.10519715 -46.81469727 42.50024414 C-48.30372671 37.66508111 -50.10847649 33.01245243 -51.99438477 28.32055664 C-52.85766602 25.11352539 -52.85766602 25.11352539 -52.33422852 22.95727539 C-50.33445196 20.4601999 -48.11606992 18.70398133 -45.54516602 16.80102539 C-44.6002832 16.08301758 -43.65540039 15.36500977 -42.68188477 14.62524414 C-39.85766602 13.11352539 -39.85766602 13.11352539 -37.43969727 13.03149414 C-32.99172483 14.89547049 -29.62866505 18.18700914 -26.02954102 21.34008789 C-22.56299899 24.41182775 -22.56299899 24.41182775 -18.15844727 24.98461914 C-17.39918945 24.6971582 -16.63993164 24.40969727 -15.85766602 24.11352539 C-13.52588627 23.76949231 -11.1927956 23.43403337 -8.85766602 23.11352539 C-8.48641602 21.28821289 -8.48641602 21.28821289 -8.10766602 19.42602539 C-3.85330323 0.23548246 -3.85330323 0.23548246 0 0 Z " fill="#000000" transform="translate(126.857666015625,56.886474609375)"/>
<path d="M0 0 C20.79 0 41.58 0 63 0 C63 3.3 63 6.6 63 10 C62.03578125 10.18175781 61.0715625 10.36351562 60.078125 10.55078125 C58.18320313 10.92783203 58.18320313 10.92783203 56.25 11.3125 C54.37054688 11.67794922 54.37054688 11.67794922 52.453125 12.05078125 C49.18238588 12.94986451 47.39351926 13.64714733 45 16 C43.99314613 19.02056161 43.84627314 21.13554614 43.79467773 24.29760742 C43.77473251 25.37850143 43.75478729 26.45939545 43.73423767 27.57304382 C43.70916893 29.32159416 43.70916893 29.32159416 43.68359375 31.10546875 C43.66281265 32.29981033 43.64203156 33.49415192 43.62062073 34.72468567 C43.55515724 38.54556443 43.4962549 42.36651276 43.4375 46.1875 C43.39431176 48.77539786 43.35069737 51.36328865 43.30664062 53.95117188 C43.19947908 60.30070739 43.0977066 66.65031234 43 73 C44.42198975 71.90578604 45.84231791 70.80941258 47.26196289 69.7121582 C48.05308975 69.10185257 48.84421661 68.49154694 49.65931702 67.86274719 C53.0820445 65.13889434 56.26618389 62.19680599 59.4375 59.1875 C60.08219238 58.5793042 60.72688477 57.9711084 61.39111328 57.34448242 C63.26655415 55.56896834 65.1347101 53.78616893 67 52 C67.94746094 51.09507812 68.89492187 50.19015625 69.87109375 49.2578125 C85.92058574 33.76872566 85.92058574 33.76872566 95 14 C91.7188698 11.81257986 89.66915644 11.45557194 85.8125 10.875 C84.72582031 10.70742187 83.63914062 10.53984375 82.51953125 10.3671875 C81.68808594 10.24601563 80.85664063 10.12484375 80 10 C79.97310784 8.52093108 79.95365379 7.04172517 79.9375 5.5625 C79.92589844 4.73878906 79.91429687 3.91507813 79.90234375 3.06640625 C80 1 80 1 81 0 C82.74382535 -0.09887792 84.49165543 -0.12799032 86.23828125 -0.12939453 C87.35614014 -0.13254669 88.47399902 -0.13569885 89.62573242 -0.13894653 C91.45068237 -0.13591019 91.45068237 -0.13591019 93.3125 -0.1328125 C94.55169189 -0.13376923 95.79088379 -0.13472595 97.06762695 -0.13571167 C99.69388281 -0.13639374 102.32004633 -0.13503538 104.94628906 -0.13037109 C108.31928714 -0.12467381 111.69220565 -0.12795302 115.06520081 -0.13394356 C118.27263677 -0.1384177 121.480063 -0.13528882 124.6875 -0.1328125 C125.9041333 -0.13483673 127.1207666 -0.13686096 128.37426758 -0.13894653 C130.05105591 -0.13421829 130.05105591 -0.13421829 131.76171875 -0.12939453 C132.75131592 -0.12859894 133.74091309 -0.12780334 134.76049805 -0.12698364 C137 0 137 0 138 1 C138.14115161 3.67058851 138.04247107 6.32432238 138 9 C136.6696875 9.37125 136.6696875 9.37125 135.3125 9.75 C134.36117187 10.03037109 134.36117187 10.03037109 133.390625 10.31640625 C131.57649284 10.83515319 129.75128318 11.31534854 127.921875 11.77734375 C120.26034171 13.85308475 115.38670868 16.19813073 110 22 C109.11441406 22.93714844 108.22882813 23.87429687 107.31640625 24.83984375 C101.42140184 31.147579 95.76540909 37.66900477 90.1015625 44.18359375 C83.08046144 52.13127135 75.54426008 59.55274821 68 67 C71.49670727 71.80277918 75.08332769 76.31592953 79.1875 80.625 C83.62175591 85.3639168 87.69057138 90.29290273 91.65625 95.42724609 C95.98962874 101.02911742 100.48509101 106.48843433 105.00341797 111.94165039 C108.19729007 115.79969568 111.34656267 119.68345589 114.4375 123.625 C123.57977744 135.05769939 131.46063084 140.27386828 146 143 C146 146.3 146 149.6 146 153 C140.1469816 153.22325199 134.29646214 153.38614011 128.44018555 153.49438477 C126.45048845 153.53952059 124.46108785 153.600849 122.47241211 153.67895508 C106.0129265 154.30900294 106.0129265 154.30900294 101.30029297 151.24438477 C99.47172949 148.91568636 98.24865448 146.67853563 97 144 C96.05200107 142.61340106 95.07840012 141.24390453 94.078125 139.89453125 C93.13444556 138.53452748 92.19175697 137.17383572 91.25 135.8125 C79.82592657 119.48674178 67.09052836 104.06910439 53.609375 89.3984375 C52.78953125 88.50382812 51.9696875 87.60921875 51.125 86.6875 C50.36445312 85.86636719 49.60390625 85.04523438 48.8203125 84.19921875 C47 82 47 82 46 79 C45.01 79 44.02 79 43 79 C43.06699405 86.59919512 43.156799 94.19787553 43.26245117 101.79663086 C43.29570111 104.38152954 43.32373277 106.96650084 43.34643555 109.55151367 C43.37997927 113.26773009 43.43229728 116.98328101 43.48828125 120.69921875 C43.49467117 121.85459641 43.5010611 123.00997406 43.50764465 124.20036316 C43.52743881 125.28110611 43.54723297 126.36184906 43.56762695 127.4753418 C43.57873001 128.42354294 43.58983307 129.37174408 43.60127258 130.34867859 C44.08088548 133.53784467 45.09178216 135.41477 47 138 C52.12231559 140.76605042 57.31296966 141.86259393 63 143 C63 146.3 63 149.6 63 153 C42.21 153 21.42 153 0 153 C0 149.7 0 146.4 0 143 C0.88042969 142.91363281 1.76085937 142.82726562 2.66796875 142.73828125 C10.04510606 142.15926798 10.04510606 142.15926798 16.25 138.625 C18.74745744 134.87881384 19.12388557 131.83377414 19.14044189 127.39006042 C19.14615204 126.46912094 19.15186218 125.54818146 19.15774536 124.59933472 C19.15886322 123.5961319 19.15998108 122.59292908 19.16113281 121.55932617 C19.16609772 120.49709335 19.17106262 119.43486053 19.17617798 118.34043884 C19.19078897 114.8246089 19.19759975 111.30882407 19.203125 107.79296875 C19.20887717 105.34922789 19.2146349 102.90548705 19.22039795 100.46174622 C19.23090481 95.33639312 19.23674959 90.21105571 19.24023438 85.08569336 C19.24571943 78.52181413 19.26974926 71.9581423 19.29820633 65.39432812 C19.31683959 60.34568173 19.32203868 55.29708524 19.32357025 50.24840736 C19.32659557 47.82872699 19.33461997 45.40904747 19.34775543 42.98940086 C19.36483035 39.60239294 19.36293189 36.21589105 19.35644531 32.82885742 C19.3656601 31.83172729 19.37487488 30.83459717 19.3843689 29.80725098 C19.35018876 24.10315548 18.75916402 20.03257966 16 15 C14.26433035 13.6452401 14.26433035 13.6452401 12.20703125 13.22265625 C11.49482422 13.01962891 10.78261719 12.81660156 10.04882812 12.60742188 C9.31083984 12.42759766 8.57285156 12.24777344 7.8125 12.0625 C7.06291016 11.85560547 6.31332031 11.64871094 5.54101562 11.43554688 C3.7008031 10.93153962 1.85114224 10.46225301 0 10 C0 6.7 0 3.4 0 0 Z " fill="#000000" transform="translate(67,152)"/>
<path d="M0 0 C10.56 0 21.12 0 32 0 C32 0.99 32 1.98 32 3 C27.545 3.495 27.545 3.495 23 4 C23 24.13 23 44.26 23 65 C25.97 65.99 28.94 66.98 32 68 C32 68.66 32 69.32 32 70 C21.44 70 10.88 70 0 70 C0 69.34 0 68.68 0 68 C0.84884766 67.83564453 0.84884766 67.83564453 1.71484375 67.66796875 C2.44832031 67.50941406 3.18179688 67.35085937 3.9375 67.1875 C4.66839844 67.03667969 5.39929688 66.88585937 6.15234375 66.73046875 C7.06693359 66.36888672 7.06693359 66.36888672 8 66 C9.02472313 62.92583062 9.13866781 60.78784822 9.16113281 57.56640625 C9.17074036 56.45515381 9.1803479 55.34390137 9.19024658 54.19897461 C9.1966214 52.39891968 9.1966214 52.39891968 9.203125 50.5625 C9.20882507 49.33088135 9.21452515 48.0992627 9.22039795 46.83032227 C9.22984907 44.22445536 9.23638237 41.61857651 9.24023438 39.01269531 C9.24463583 36.33742758 9.25859146 33.66247935 9.28125 30.98730469 C9.31160258 27.13726955 9.32226932 23.2876412 9.328125 19.4375 C9.3466452 17.63744507 9.3466452 17.63744507 9.36553955 15.80102539 C9.36253845 14.68977295 9.35953735 13.57852051 9.35644531 12.43359375 C9.36191376 10.96490845 9.36191376 10.96490845 9.36749268 9.46655273 C9.19165743 6.96686308 9.19165743 6.96686308 7.67694092 5.20336914 C5.26496211 3.47253842 2.90569331 3.32285481 0 3 C0 2.01 0 1.02 0 0 Z " fill="#000000" transform="translate(168,187)"/>
</svg>
